<svg id="Calque_1" data-name="Calque 1" xmlns="http://www.w3.org/2000/svg" viewBox="0 0 84.35 79"><defs><style>.cls-1{fill:#fff;}</style></defs><title>logo</title><path class="cls-1" d="M75.33,6A47.06,47.06,0,0,1,3.5,66.61,47.06,47.06,0,1,0,75.33,6" transform="translate(-3.5 -5.96)"/><polygon class="cls-1" points="13.93 43.16 5.4 30.43 5.4 43.16 0.29 43.16 0.29 16.64 5.4 16.64 5.4 28.66 14.01 16.64 20.21 16.64 10.51 29.45 20.64 43.16 13.93 43.16"/><path class="cls-1" d="M33.9,33.52H34c0.95-2.47,2.83-4.63,6.21-4.36L40,34.11c-3.62-.75-5.42,1.61-5.42,7v8h-5V33.45c-0.94-.16-2.28-0.32-3.42-0.4V29.91a54.55,54.55,0,0,1,8.13-.35,26.06,26.06,0,0,1-.35,4" transform="translate(-3.5 -5.96)"/><path class="cls-1" d="M54.23,50.93c-2.32,6.09-4.37,7.94-8.84,7.94a13,13,0,0,1-2.76-.31l0.31-4.33a8.75,8.75,0,0,0,2.67.43c1.65,0,2.75-.75,3.77-3.66l0.67-1.88L42.87,29.59h5.58l2.64,7.46c0.59,1.69,1.1,3.62,1.53,5.39h0c0.44-1.77,1.26-4.4,1.89-6.21l2.32-6.64h5.38Z" transform="translate(-3.5 -5.96)"/><path class="cls-1" d="M69.5,49.51a27,27,0,0,1-4.09-.36L65.53,45a17.07,17.07,0,0,0,4.21.6c1.92,0,3.18-.79,3.18-2.09,0-3.46-7.9-1.49-7.9-8.13,0-3.42,2.79-6.24,8.29-6.24a22.45,22.45,0,0,1,3.57.35l-0.16,4A13.64,13.64,0,0,0,73.12,33c-2,0-2.91.79-2.91,2,0,3.19,8,1.77,8,8.1,0,3.85-3.38,6.44-8.72,6.44" transform="translate(-3.5 -5.96)"/><polygon class="cls-1" points="67.6 17.06 66.52 17.06 66.52 16.67 69.15 16.67 69.15 17.06 68.06 17.06 68.06 20.23 67.6 20.23 67.6 17.06"/><path class="cls-1" d="M76,24.63c0-.5-0.06-1.1-0.06-1.53h0c-0.13.41-.27,0.86-0.45,1.35l-0.63,1.72H74.53L74,24.47c-0.17-.5-0.31-1-0.41-1.38h0c0,0.44,0,1-.07,1.57l-0.1,1.52H72.94l0.25-3.56h0.58l0.61,1.72c0.15,0.44.27,0.83,0.36,1.2h0c0.09-.36.22-0.75,0.38-1.2l0.63-1.72h0.58l0.22,3.56H76.11Z" transform="translate(-3.5 -5.96)"/></svg>